<svg width="309" height="439" viewBox="0 0 309 439" fill="none" xmlns="http://www.w3.org/2000/svg">
<g filter="url(#filter0_d)">
<g clip-path="url(#clip0)">
<path d="M6 9.99999C6 5.58172 9.58172 2 14 2H295C299.418 2 303 5.58172 303 10V421C303 425.418 299.418 429 295 429H14C9.58173 429 6 425.418 6 421V9.99999Z" fill="#00ADD3"/>
<path d="M11.9237 316.591L72.6537 280.317L84.3081 299.829L116.746 280.453L105.092 260.942L119.482 252.346L103.748 226.006L89.3584 234.601L42.1582 155.579L-0.767401 181.218L-3.80971 290.25L11.9237 316.591ZM57.652 253.539L29.604 270.292L29.0213 269.317L30.4541 210.221L31.4297 209.638L57.652 253.539ZM215.833 202.407L224.083 169.682L180.158 158.608L191.305 114.806L158.435 106.312L147.337 150.334L103.315 139.235L95.2101 172.204L139.062 183.155L127.988 227.08L160.712 235.33L171.847 191.369L215.833 202.407ZM251.536 173.47L312.266 137.196L323.92 156.708L356.358 137.332L344.704 117.82L359.094 109.225L343.361 82.8846L328.971 91.4797L281.77 12.4575L238.845 38.0971L235.803 147.129L251.536 173.47ZM297.264 110.418L269.216 127.171L268.634 126.196L270.066 67.0996L271.042 66.5169L297.264 110.418Z" fill="#0095B6"/>
<rect width="440.886" height="296.424" rx="2" transform="matrix(-0.859043 0.511903 0.511903 0.859043 330.183 112.284)" fill="#F2F4F5"/>
<path d="M-0.863232 340.103C-4.04075 335.697 -9.01642 335.095 -13.7359 337.914C-18.7846 340.929 -20.762 346.677 -17.0255 352.933C-13.3054 359.161 -7.40067 360.238 -2.2422 357.157C3.24553 353.88 3.75346 348.414 2.10851 345.078L-3.0718 348.123C-2.37191 349.876 -2.9106 351.551 -4.77643 352.665C-7.25505 354.146 -9.73986 353.247 -11.7939 349.808C-13.7386 346.552 -13.5065 343.783 -10.9456 342.253C-8.98826 341.084 -7.18411 341.57 -6.0217 343.184L-0.863232 340.103ZM15.4306 346.602C20.0037 343.871 20.9629 339.327 18.3844 335.01C15.806 330.693 11.3507 329.383 6.77755 332.114C2.20444 334.846 1.24524 339.39 3.82367 343.707C6.4021 348.024 10.8575 349.333 15.4306 346.602ZM13.2383 342.849C11.8847 343.657 10.2768 342.793 8.96029 340.589C7.64376 338.385 7.6456 336.56 8.99924 335.751C10.2797 334.986 11.8876 335.85 13.2041 338.054C14.5207 340.259 14.5188 342.084 13.2383 342.849ZM24.9356 329.856C24.1144 328.46 24.3984 327.149 25.6515 326.401C26.9228 325.641 28.1754 326.035 28.9966 327.431L33.7164 335.333L38.7651 332.318L33.4116 323.354C31.5962 320.294 28.3443 319.233 25.3627 321.014C23.2956 322.249 22.303 324.306 22.75 326.446L22.6037 326.534L21.0086 323.863L16.2159 326.725L24.6068 340.774L29.6555 337.758L24.9356 329.856ZM41.2446 311.776L38.83 313.219L36.8197 309.853L31.7709 312.868L33.7812 316.234L31.9886 317.305L34.1737 320.963L35.9664 319.893L39.7575 326.24C41.4799 329.207 44.1905 329.611 47.5605 327.337C48.6655 326.59 49.3741 325.845 49.7494 325.434L46.8982 322.323C46.7334 322.483 46.2996 322.879 45.9978 323.059C45.3393 323.452 44.8718 323.334 44.5222 322.749L41.0151 316.877L43.4297 315.435L41.2446 311.776ZM51.6956 324.595L56.7443 321.579L48.3535 307.531L43.3047 310.546L51.6956 324.595ZM44.9551 307.575C46.327 306.755 46.8255 305.055 46.0662 303.784C45.3069 302.513 43.5738 302.146 42.2018 302.965C40.8299 303.785 40.3313 305.485 41.0907 306.756C41.85 308.027 43.5831 308.394 44.9551 307.575ZM59.6455 309.125C58.8243 307.729 59.1083 306.418 60.3614 305.67C61.6327 304.91 62.8852 305.304 63.7064 306.699L68.4263 314.602L73.475 311.586L68.1215 302.623C66.3061 299.563 63.0542 298.502 60.0725 300.283C58.0055 301.517 57.0129 303.575 57.4599 305.715L57.3136 305.802L55.7184 303.132L50.9258 305.994L59.3166 320.043L64.3654 317.027L59.6455 309.125ZM82.8519 306.333C86.7482 304.006 88.1398 300.643 86.8674 297.433L82.2577 300.186C82.4403 301.156 81.8756 302.102 80.8421 302.719C79.3421 303.615 77.8741 303.151 77.0656 301.798L76.9345 301.578L86.0807 296.116L85.3815 294.945C82.7102 290.472 78.333 289.376 74.0891 291.911C69.7355 294.511 68.6813 299.062 71.2816 303.416C73.9966 307.962 78.352 309.021 82.8519 306.333ZM75.2738 298.798C74.5747 297.565 75.0837 296.132 76.3184 295.394C77.5715 294.646 79.0252 294.919 79.7738 296.11L75.2738 298.798ZM91.966 289.821C91.1448 288.425 91.4288 287.114 92.6818 286.366C93.9531 285.606 95.2057 286 96.0269 287.395L100.747 295.298L105.795 292.282L100.442 283.319C98.6265 280.259 95.3747 279.198 92.393 280.979C90.3259 282.213 89.3334 284.27 89.7804 286.411L89.634 286.498L88.0389 283.828L83.2463 286.69L91.6371 300.739L96.6858 297.723L91.966 289.821ZM108.275 271.741L105.86 273.183L103.85 269.818L98.8013 272.833L100.812 276.199L99.0189 277.27L101.204 280.928L102.997 279.857L106.788 286.205C108.51 289.172 111.221 289.575 114.591 287.302C115.696 286.555 116.404 285.809 116.78 285.399L113.929 282.287C113.764 282.448 113.33 282.843 113.028 283.024C112.37 283.417 111.902 283.299 111.552 282.714L108.045 276.842L110.46 275.4L108.275 271.741ZM122.772 282.441C124.601 281.348 125.61 279.901 125.521 277.82L125.631 277.755L126.811 279.73L131.531 276.911L125.784 267.29C124.232 264.692 120.57 264.149 116.555 266.548C112.357 269.055 111.601 272.485 112.957 275.149L117.603 272.374C117.203 271.434 117.597 270.64 118.558 270.067C119.436 269.542 120.298 269.573 120.735 270.305L120.757 270.342C121.243 271.156 120.5 271.947 118.244 273.53C115.47 275.472 113.91 277.992 115.751 281.075C117.423 283.873 120.083 284.047 122.772 282.441ZM122.517 278.275C121.657 278.788 120.802 278.728 120.332 277.941C119.901 277.219 120.08 276.355 121.141 275.473C121.87 274.864 122.448 274.295 122.847 273.759L123.547 274.929C124.312 276.21 123.66 277.592 122.517 278.275ZM127.804 253.724L122.755 256.739L133.943 275.471L138.992 272.455L127.804 253.724Z" fill="#E0E0E0"/>
<path d="M172.137 340.103C168.959 335.697 163.984 335.095 159.264 337.914C154.215 340.929 152.238 346.677 155.975 352.933C159.695 359.161 165.599 360.238 170.758 357.157C176.246 353.88 176.753 348.414 175.109 345.078L169.928 348.123C170.628 349.876 170.089 351.551 168.224 352.665C165.745 354.146 163.26 353.247 161.206 349.808C159.261 346.552 159.494 343.783 162.054 342.253C164.012 341.084 165.816 341.57 166.978 343.184L172.137 340.103ZM188.431 346.602C193.004 343.871 193.963 339.327 191.384 335.01C188.806 330.693 184.351 329.383 179.778 332.114C175.204 334.846 174.245 339.39 176.824 343.707C179.402 348.024 183.857 349.333 188.431 346.602ZM186.238 342.849C184.885 343.657 183.277 342.793 181.96 340.589C180.644 338.385 180.646 336.56 181.999 335.751C183.28 334.986 184.888 335.85 186.204 338.054C187.521 340.259 187.519 342.084 186.238 342.849ZM197.936 329.856C197.114 328.46 197.398 327.149 198.651 326.401C199.923 325.641 201.175 326.035 201.997 327.431L206.716 335.333L211.765 332.318L206.412 323.354C204.596 320.294 201.344 319.233 198.363 321.014C196.296 322.249 195.303 324.306 195.75 326.446L195.604 326.534L194.009 323.863L189.216 326.725L197.607 340.774L202.655 337.758L197.936 329.856ZM214.245 311.776L211.83 313.219L209.82 309.853L204.771 312.868L206.781 316.234L204.989 317.305L207.174 320.963L208.966 319.893L212.758 326.24C214.48 329.207 217.19 329.611 220.56 327.337C221.666 326.59 222.374 325.845 222.749 325.434L219.898 322.323C219.733 322.483 219.3 322.879 218.998 323.059C218.339 323.452 217.872 323.334 217.522 322.749L214.015 316.877L216.43 315.435L214.245 311.776ZM224.696 324.595L229.744 321.579L221.353 307.531L216.305 310.546L224.696 324.595ZM217.955 307.575C219.327 306.755 219.826 305.055 219.066 303.784C218.307 302.513 216.574 302.146 215.202 302.965C213.83 303.785 213.331 305.485 214.091 306.756C214.85 308.027 216.583 308.394 217.955 307.575ZM232.646 309.125C231.824 307.729 232.108 306.418 233.361 305.67C234.633 304.91 235.885 305.304 236.706 306.699L241.426 314.602L246.475 311.586L241.121 302.623C239.306 299.563 236.054 298.502 233.073 300.283C231.006 301.517 230.013 303.575 230.46 305.715L230.314 305.802L228.718 303.132L223.926 305.994L232.317 320.043L237.365 317.027L232.646 309.125ZM255.852 306.333C259.748 304.006 261.14 300.643 259.867 297.433L255.258 300.186C255.44 301.156 254.876 302.102 253.842 302.719C252.342 303.615 250.874 303.151 250.066 301.798L249.935 301.578L259.081 296.116L258.381 294.945C255.71 290.472 251.333 289.376 247.089 291.911C242.736 294.511 241.681 299.062 244.282 303.416C246.997 307.962 251.352 309.021 255.852 306.333ZM248.274 298.798C247.575 297.565 248.084 296.132 249.318 295.394C250.571 294.646 252.025 294.919 252.774 296.11L248.274 298.798ZM264.966 289.821C264.145 288.425 264.429 287.114 265.682 286.366C266.953 285.606 268.206 286 269.027 287.395L273.747 295.298L278.795 292.282L273.442 283.319C271.626 280.259 268.375 279.198 265.393 280.979C263.326 282.213 262.333 284.27 262.78 286.411L262.634 286.498L261.039 283.828L256.246 286.69L264.637 300.739L269.686 297.723L264.966 289.821ZM281.275 271.741L278.86 273.183L276.85 269.818L271.801 272.833L273.812 276.199L272.019 277.27L274.204 280.928L275.997 279.857L279.788 286.205C281.51 289.172 284.221 289.575 287.591 287.302C288.696 286.555 289.404 285.809 289.78 285.399L286.929 282.287C286.764 282.448 286.33 282.843 286.028 283.024C285.37 283.417 284.902 283.299 284.552 282.714L281.045 276.842L283.46 275.4L281.275 271.741ZM295.772 282.441C297.601 281.348 298.61 279.901 298.521 277.82L298.631 277.755L299.811 279.73L304.531 276.911L298.784 267.29C297.232 264.692 293.57 264.149 289.555 266.548C285.357 269.055 284.601 272.485 285.957 275.149L290.603 272.374C290.203 271.434 290.597 270.64 291.558 270.067C292.436 269.542 293.298 269.573 293.735 270.305L293.757 270.342C294.243 271.156 293.5 271.947 291.244 273.53C288.47 275.472 286.91 277.992 288.751 281.075C290.423 283.873 293.083 284.047 295.772 282.441ZM295.517 278.275C294.657 278.788 293.802 278.728 293.332 277.941C292.901 277.219 293.08 276.355 294.141 275.473C294.87 274.864 295.448 274.295 295.847 273.759L296.547 274.929C297.312 276.21 296.66 277.592 295.517 278.275ZM300.804 253.724L295.755 256.739L306.943 275.471L311.992 272.455L300.804 253.724Z" fill="#E0E0E0"/>
<path d="M172.137 242.103C168.959 237.697 163.984 237.095 159.264 239.914C154.215 242.929 152.238 248.677 155.975 254.933C159.695 261.161 165.599 262.239 170.758 259.158C176.246 255.88 176.753 250.414 175.109 247.078L169.928 250.123C170.628 251.876 170.089 253.551 168.224 254.665C165.745 256.146 163.26 255.247 161.206 251.808C159.261 248.552 159.494 245.783 162.054 244.253C164.012 243.084 165.816 243.57 166.978 245.184L172.137 242.103ZM188.431 248.602C193.004 245.871 193.963 241.327 191.384 237.01C188.806 232.693 184.351 231.383 179.778 234.114C175.204 236.846 174.245 241.39 176.824 245.707C179.402 250.024 183.857 251.333 188.431 248.602ZM186.238 244.849C184.885 245.657 183.277 244.793 181.96 242.589C180.644 240.385 180.646 238.56 181.999 237.751C183.28 236.986 184.888 237.85 186.204 240.054C187.521 242.259 187.519 244.084 186.238 244.849ZM197.936 231.856C197.114 230.46 197.398 229.149 198.651 228.401C199.923 227.642 201.175 228.035 201.997 229.431L206.716 237.333L211.765 234.318L206.412 225.354C204.596 222.294 201.344 221.233 198.363 223.014C196.296 224.249 195.303 226.306 195.75 228.446L195.604 228.534L194.009 225.863L189.216 228.725L197.607 242.774L202.655 239.758L197.936 231.856ZM214.245 213.776L211.83 215.219L209.82 211.853L204.771 214.868L206.781 218.234L204.989 219.305L207.174 222.963L208.966 221.893L212.758 228.24C214.48 231.207 217.19 231.611 220.56 229.337C221.666 228.59 222.374 227.845 222.749 227.434L219.898 224.323C219.733 224.483 219.3 224.879 218.998 225.059C218.339 225.452 217.872 225.334 217.522 224.749L214.015 218.877L216.43 217.435L214.245 213.776ZM224.696 226.595L229.744 223.579L221.353 209.531L216.305 212.546L224.696 226.595ZM217.955 209.575C219.327 208.755 219.826 207.055 219.066 205.784C218.307 204.513 216.574 204.146 215.202 204.965C213.83 205.785 213.331 207.485 214.091 208.756C214.85 210.027 216.583 210.394 217.955 209.575ZM232.646 211.125C231.824 209.729 232.108 208.418 233.361 207.67C234.633 206.91 235.885 207.304 236.706 208.699L241.426 216.602L246.475 213.586L241.121 204.623C239.306 201.563 236.054 200.502 233.073 202.283C231.006 203.517 230.013 205.575 230.46 207.715L230.314 207.802L228.718 205.132L223.926 207.994L232.317 222.043L237.365 219.027L232.646 211.125ZM255.852 208.333C259.748 206.006 261.14 202.643 259.867 199.433L255.258 202.186C255.44 203.156 254.876 204.102 253.842 204.719C252.342 205.615 250.874 205.152 250.066 203.798L249.935 203.578L259.081 198.116L258.381 196.945C255.71 192.472 251.333 191.376 247.089 193.911C242.736 196.511 241.681 201.062 244.282 205.416C246.997 209.962 251.352 211.021 255.852 208.333ZM248.274 200.798C247.575 199.565 248.084 198.132 249.318 197.394C250.571 196.646 252.025 196.919 252.774 198.11L248.274 200.798ZM264.966 191.821C264.145 190.425 264.429 189.114 265.682 188.366C266.953 187.606 268.206 188 269.027 189.395L273.747 197.298L278.795 194.282L273.442 185.319C271.626 182.259 268.375 181.198 265.393 182.979C263.326 184.213 262.333 186.271 262.78 188.411L262.634 188.498L261.039 185.828L256.246 188.69L264.637 202.739L269.686 199.723L264.966 191.821ZM281.275 173.741L278.86 175.183L276.85 171.818L271.801 174.833L273.812 178.199L272.019 179.27L274.204 182.928L275.997 181.857L279.788 188.205C281.51 191.172 284.221 191.575 287.591 189.302C288.696 188.555 289.404 187.809 289.78 187.399L286.929 184.287C286.764 184.448 286.33 184.843 286.028 185.024C285.37 185.417 284.902 185.299 284.552 184.714L281.045 178.842L283.46 177.4L281.275 173.741ZM295.772 184.441C297.601 183.348 298.61 181.901 298.521 179.82L298.631 179.755L299.811 181.73L304.531 178.911L298.784 169.29C297.232 166.692 293.57 166.149 289.555 168.548C285.357 171.055 284.601 174.485 285.957 177.149L290.603 174.374C290.203 173.434 290.597 172.64 291.558 172.067C292.436 171.542 293.298 171.573 293.735 172.305L293.757 172.342C294.243 173.156 293.5 173.947 291.244 175.53C288.47 177.472 286.91 179.992 288.751 183.075C290.423 185.873 293.083 186.047 295.772 184.441ZM295.517 180.275C294.657 180.788 293.802 180.728 293.332 179.941C292.901 179.219 293.08 178.355 294.141 177.473C294.87 176.864 295.448 176.295 295.847 175.759L296.547 176.929C297.312 178.21 296.66 179.592 295.517 180.275ZM300.804 155.724L295.755 158.739L306.943 177.471L311.992 174.455L300.804 155.724Z" fill="#E0E0E0"/>
<path d="M-65.8632 440.103C-69.0408 435.697 -74.0164 435.095 -78.7359 437.914C-83.7846 440.929 -85.762 446.677 -82.0255 452.933C-78.3054 459.162 -72.4007 460.239 -67.2422 457.158C-61.7545 453.88 -61.2465 448.414 -62.8915 445.079L-68.0718 448.123C-67.3719 449.876 -67.9106 451.551 -69.7764 452.665C-72.2551 454.146 -74.7399 453.247 -76.7939 449.808C-78.7386 446.552 -78.5065 443.783 -75.9456 442.253C-73.9883 441.084 -72.1841 441.57 -71.0217 443.184L-65.8632 440.103ZM-49.5694 446.602C-44.9963 443.871 -44.0371 439.327 -46.6156 435.01C-49.194 430.693 -53.6493 429.383 -58.2225 432.114C-62.7956 434.846 -63.7548 439.39 -61.1763 443.707C-58.5979 448.024 -54.1425 449.333 -49.5694 446.602ZM-51.7617 442.849C-53.1153 443.657 -54.7232 442.793 -56.0397 440.589C-57.3562 438.385 -57.3544 436.56 -56.0008 435.751C-54.7203 434.986 -53.1124 435.85 -51.7959 438.054C-50.4793 440.259 -50.4812 442.084 -51.7617 442.849ZM-40.0644 429.856C-40.8856 428.461 -40.6016 427.149 -39.3485 426.401C-38.0772 425.642 -36.8246 426.035 -36.0034 427.431L-31.2836 435.333L-26.2349 432.318L-31.5884 423.354C-33.4038 420.294 -36.6557 419.233 -39.6373 421.014C-41.7044 422.249 -42.697 424.306 -42.25 426.446L-42.3963 426.534L-43.9914 423.863L-48.7841 426.725L-40.3932 440.774L-35.3445 437.759L-40.0644 429.856ZM-23.7554 411.777L-26.17 413.219L-28.1803 409.853L-33.2291 412.868L-31.2188 416.234L-33.0114 417.305L-30.8263 420.963L-29.0336 419.893L-25.2425 426.24C-23.5201 429.207 -20.8095 429.611 -17.4395 427.337C-16.3345 426.591 -15.6259 425.845 -15.2506 425.434L-18.1018 422.323C-18.2666 422.483 -18.7004 422.879 -19.0022 423.059C-19.6607 423.452 -20.1282 423.334 -20.4778 422.749L-23.9849 416.877L-21.5703 415.435L-23.7554 411.777ZM-13.3044 424.595L-8.25573 421.579L-16.6465 407.531L-21.6953 410.546L-13.3044 424.595ZM-20.0449 407.575C-18.673 406.755 -18.1745 405.056 -18.9338 403.784C-19.6931 402.513 -21.4262 402.146 -22.7982 402.965C-24.1701 403.785 -24.6687 405.485 -23.9093 406.756C-23.15 408.027 -21.4169 408.394 -20.0449 407.575ZM-5.35448 409.125C-6.17567 407.729 -5.89167 406.418 -4.63864 405.67C-3.36732 404.91 -2.11475 405.304 -1.29356 406.7L3.42628 414.602L8.47499 411.586L3.12147 402.623C1.30605 399.563 -1.94579 398.502 -4.92745 400.283C-6.9945 401.518 -7.98707 403.575 -7.54008 405.715L-7.68642 405.802L-9.28155 403.132L-14.0742 405.994L-5.68336 420.043L-0.634645 417.027L-5.35448 409.125ZM17.8519 406.333C21.7482 404.006 23.1398 400.644 21.8674 397.433L17.2577 400.186C17.4403 401.156 16.8756 402.102 15.8421 402.719C14.3421 403.615 12.8741 403.152 12.0656 401.798L11.9345 401.578L21.0807 396.116L20.3815 394.945C17.7102 390.472 13.333 389.377 9.08912 391.911C4.73552 394.512 3.68131 399.062 6.28159 403.416C8.99658 407.962 13.352 409.021 17.8519 406.333ZM10.2738 398.798C9.57472 397.565 10.0837 396.132 11.3184 395.394C12.5715 394.646 14.0252 394.919 14.7738 396.11L10.2738 398.798ZM26.966 389.821C26.1448 388.425 26.4288 387.114 27.6818 386.366C28.9531 385.606 30.2057 386 31.0269 387.395L35.7467 395.298L40.7954 392.282L35.4419 383.319C33.6265 380.259 30.3747 379.198 27.393 380.979C25.3259 382.213 24.3334 384.271 24.7804 386.411L24.634 386.498L23.0389 383.828L18.2463 386.69L26.6371 400.739L31.6858 397.723L26.966 389.821ZM43.2749 371.741L40.8603 373.183L38.85 369.818L33.8013 372.833L35.8116 376.199L34.0189 377.27L36.204 380.928L37.9967 379.857L41.7878 386.205C43.5103 389.172 46.2208 389.576 49.5908 387.302C50.6958 386.555 51.4044 385.809 51.7798 385.399L48.9285 382.287C48.7638 382.448 48.33 382.843 48.0281 383.024C47.3696 383.417 46.9021 383.299 46.5525 382.714L43.0454 376.842L45.46 375.4L43.2749 371.741ZM57.7716 382.441C59.6008 381.348 60.6104 379.901 60.5214 377.82L60.6312 377.755L61.8111 379.73L66.5306 376.911L60.7838 367.29C59.2323 364.692 55.5702 364.149 51.555 366.548C47.3569 369.055 46.6009 372.485 47.9567 375.149L52.603 372.374C52.2029 371.434 52.5973 370.64 53.5577 370.067C54.4357 369.542 55.298 369.573 55.735 370.305L55.7569 370.342C56.2431 371.156 55.4997 371.947 53.2438 373.53C50.4701 375.472 48.9102 377.992 50.7511 381.075C52.4228 383.873 55.0826 384.047 57.7716 382.441ZM57.5169 378.275C56.6571 378.788 55.8022 378.728 55.3324 377.941C54.9008 377.219 55.0798 376.355 56.1412 375.473C56.8696 374.864 57.4481 374.295 57.8475 373.759L58.5467 374.93C59.3115 376.21 58.6601 377.592 57.5169 378.275ZM62.8039 353.724L57.7552 356.739L68.9429 375.471L73.9916 372.455L62.8039 353.724Z" fill="#E0E0E0"/>
<path d="M112.137 334.103C108.959 329.697 103.984 329.095 99.2641 331.914C94.2154 334.929 92.238 340.677 95.9745 346.933C99.6946 353.161 105.599 354.238 110.758 351.157C116.246 347.88 116.753 342.414 115.109 339.078L109.928 342.123C110.628 343.876 110.089 345.551 108.224 346.665C105.745 348.146 103.26 347.247 101.206 343.808C99.2614 340.552 99.4935 337.783 102.054 336.253C104.012 335.084 105.816 335.57 106.978 337.184L112.137 334.103ZM128.431 340.602C133.004 337.871 133.963 333.327 131.384 329.01C128.806 324.693 124.351 323.383 119.778 326.114C115.204 328.846 114.245 333.39 116.824 337.707C119.402 342.024 123.857 343.333 128.431 340.602ZM126.238 336.849C124.885 337.657 123.277 336.793 121.96 334.589C120.644 332.385 120.646 330.56 121.999 329.751C123.28 328.986 124.888 329.85 126.204 332.054C127.521 334.259 127.519 336.084 126.238 336.849ZM137.936 323.856C137.114 322.46 137.398 321.149 138.651 320.401C139.923 319.641 141.175 320.035 141.997 321.431L146.716 329.333L151.765 326.318L146.412 317.354C144.596 314.294 141.344 313.233 138.363 315.014C136.296 316.249 135.303 318.306 135.75 320.446L135.604 320.534L134.009 317.863L129.216 320.725L137.607 334.774L142.655 331.758L137.936 323.856ZM154.245 305.776L151.83 307.219L149.82 303.853L144.771 306.868L146.781 310.234L144.989 311.305L147.174 314.963L148.966 313.893L152.758 320.24C154.48 323.207 157.19 323.611 160.56 321.337C161.666 320.59 162.374 319.845 162.749 319.434L159.898 316.323C159.733 316.483 159.3 316.879 158.998 317.059C158.339 317.452 157.872 317.334 157.522 316.749L154.015 310.877L156.43 309.435L154.245 305.776ZM164.696 318.595L169.744 315.579L161.353 301.531L156.305 304.546L164.696 318.595ZM157.955 301.575C159.327 300.755 159.826 299.055 159.066 297.784C158.307 296.513 156.574 296.146 155.202 296.965C153.83 297.785 153.331 299.485 154.091 300.756C154.85 302.027 156.583 302.394 157.955 301.575ZM172.646 303.125C171.824 301.729 172.108 300.418 173.361 299.67C174.633 298.91 175.885 299.304 176.706 300.699L181.426 308.602L186.475 305.586L181.121 296.623C179.306 293.563 176.054 292.502 173.073 294.283C171.006 295.517 170.013 297.575 170.46 299.715L170.314 299.802L168.718 297.132L163.926 299.994L172.317 314.043L177.365 311.027L172.646 303.125ZM195.852 300.333C199.748 298.006 201.14 294.643 199.867 291.433L195.258 294.186C195.44 295.156 194.876 296.102 193.842 296.719C192.342 297.615 190.874 297.151 190.066 295.798L189.935 295.578L199.081 290.116L198.381 288.945C195.71 284.472 191.333 283.376 187.089 285.911C182.736 288.511 181.681 293.062 184.282 297.416C186.997 301.962 191.352 303.021 195.852 300.333ZM188.274 292.798C187.575 291.565 188.084 290.132 189.318 289.394C190.571 288.646 192.025 288.919 192.774 290.11L188.274 292.798ZM204.966 283.821C204.145 282.425 204.429 281.114 205.682 280.366C206.953 279.606 208.206 280 209.027 281.395L213.747 289.298L218.795 286.282L213.442 277.319C211.626 274.259 208.375 273.198 205.393 274.979C203.326 276.213 202.333 278.27 202.78 280.411L202.634 280.498L201.039 277.828L196.246 280.69L204.637 294.739L209.686 291.723L204.966 283.821ZM221.275 265.741L218.86 267.183L216.85 263.818L211.801 266.833L213.812 270.199L212.019 271.27L214.204 274.928L215.997 273.857L219.788 280.205C221.51 283.172 224.221 283.575 227.591 281.302C228.696 280.555 229.404 279.809 229.78 279.399L226.929 276.287C226.764 276.448 226.33 276.843 226.028 277.024C225.37 277.417 224.902 277.299 224.552 276.714L221.045 270.842L223.46 269.4L221.275 265.741ZM235.772 276.441C237.601 275.348 238.61 273.901 238.521 271.82L238.631 271.755L239.811 273.73L244.531 270.911L238.784 261.29C237.232 258.692 233.57 258.149 229.555 260.548C225.357 263.055 224.601 266.485 225.957 269.149L230.603 266.374C230.203 265.434 230.597 264.64 231.558 264.067C232.436 263.542 233.298 263.573 233.735 264.305L233.757 264.342C234.243 265.156 233.5 265.947 231.244 267.53C228.47 269.472 226.91 271.992 228.751 275.075C230.423 277.873 233.083 278.047 235.772 276.441ZM235.517 272.275C234.657 272.788 233.802 272.728 233.332 271.941C232.901 271.219 233.08 270.355 234.141 269.473C234.87 268.864 235.448 268.295 235.847 267.759L236.547 268.929C237.312 270.21 236.66 271.592 235.517 272.275ZM240.804 247.724L235.755 250.739L246.943 269.471L251.992 266.455L240.804 247.724Z" fill="#E0E0E0"/>
<path d="M-0.863232 461.103C-4.04075 456.697 -9.01642 456.095 -13.7359 458.914C-18.7846 461.929 -20.762 467.677 -17.0255 473.933C-13.3054 480.162 -7.40067 481.239 -2.2422 478.158C3.24553 474.88 3.75346 469.414 2.10851 466.079L-3.0718 469.123C-2.37191 470.876 -2.9106 472.551 -4.77643 473.665C-7.25505 475.146 -9.73986 474.247 -11.7939 470.808C-13.7386 467.552 -13.5065 464.783 -10.9456 463.253C-8.98826 462.084 -7.18411 462.57 -6.0217 464.184L-0.863232 461.103ZM15.4306 467.602C20.0037 464.871 20.9629 460.327 18.3844 456.01C15.806 451.693 11.3507 450.383 6.77755 453.114C2.20444 455.846 1.24524 460.39 3.82367 464.707C6.4021 469.024 10.8575 470.333 15.4306 467.602ZM13.2383 463.849C11.8847 464.657 10.2768 463.793 8.96029 461.589C7.64376 459.385 7.6456 457.56 8.99924 456.751C10.2797 455.986 11.8876 456.85 13.2041 459.054C14.5207 461.259 14.5188 463.084 13.2383 463.849ZM24.9356 450.856C24.1144 449.461 24.3984 448.149 25.6515 447.401C26.9228 446.642 28.1754 447.035 28.9966 448.431L33.7164 456.333L38.7651 453.318L33.4116 444.354C31.5962 441.294 28.3443 440.233 25.3627 442.014C23.2956 443.249 22.303 445.306 22.75 447.446L22.6037 447.534L21.0086 444.863L16.2159 447.725L24.6068 461.774L29.6555 458.759L24.9356 450.856ZM41.2446 432.777L38.83 434.219L36.8197 430.853L31.7709 433.868L33.7812 437.234L31.9886 438.305L34.1737 441.963L35.9664 440.893L39.7575 447.24C41.4799 450.207 44.1905 450.611 47.5605 448.337C48.6655 447.591 49.3741 446.845 49.7494 446.434L46.8982 443.323C46.7334 443.483 46.2996 443.879 45.9978 444.059C45.3393 444.452 44.8718 444.334 44.5222 443.749L41.0151 437.877L43.4297 436.435L41.2446 432.777ZM51.6956 445.595L56.7443 442.579L48.3535 428.531L43.3047 431.546L51.6956 445.595ZM44.9551 428.575C46.327 427.755 46.8255 426.056 46.0662 424.784C45.3069 423.513 43.5738 423.146 42.2018 423.965C40.8299 424.785 40.3313 426.485 41.0907 427.756C41.85 429.027 43.5831 429.394 44.9551 428.575ZM59.6455 430.125C58.8243 428.729 59.1083 427.418 60.3614 426.67C61.6327 425.91 62.8852 426.304 63.7064 427.7L68.4263 435.602L73.475 432.586L68.1215 423.623C66.3061 420.563 63.0542 419.502 60.0725 421.283C58.0055 422.518 57.0129 424.575 57.4599 426.715L57.3136 426.802L55.7184 424.132L50.9258 426.994L59.3166 441.043L64.3654 438.027L59.6455 430.125ZM82.8519 427.333C86.7482 425.006 88.1398 421.644 86.8674 418.433L82.2577 421.186C82.4403 422.156 81.8756 423.102 80.8421 423.719C79.3421 424.615 77.8741 424.152 77.0656 422.798L76.9345 422.578L86.0807 417.116L85.3815 415.945C82.7102 411.472 78.333 410.377 74.0891 412.911C69.7355 415.512 68.6813 420.062 71.2816 424.416C73.9966 428.962 78.352 430.021 82.8519 427.333ZM75.2738 419.798C74.5747 418.565 75.0837 417.132 76.3184 416.394C77.5715 415.646 79.0252 415.919 79.7738 417.11L75.2738 419.798ZM91.966 410.821C91.1448 409.425 91.4288 408.114 92.6818 407.366C93.9531 406.606 95.2057 407 96.0269 408.395L100.747 416.298L105.795 413.282L100.442 404.319C98.6265 401.259 95.3747 400.198 92.393 401.979C90.3259 403.213 89.3334 405.271 89.7804 407.411L89.634 407.498L88.0389 404.828L83.2463 407.69L91.6371 421.739L96.6858 418.723L91.966 410.821ZM108.275 392.741L105.86 394.183L103.85 390.818L98.8013 393.833L100.812 397.199L99.0189 398.27L101.204 401.928L102.997 400.857L106.788 407.205C108.51 410.172 111.221 410.576 114.591 408.302C115.696 407.555 116.404 406.809 116.78 406.399L113.929 403.287C113.764 403.448 113.33 403.843 113.028 404.024C112.37 404.417 111.902 404.299 111.552 403.714L108.045 397.842L110.46 396.4L108.275 392.741ZM122.772 403.441C124.601 402.348 125.61 400.901 125.521 398.82L125.631 398.755L126.811 400.73L131.531 397.911L125.784 388.29C124.232 385.692 120.57 385.149 116.555 387.548C112.357 390.055 111.601 393.485 112.957 396.149L117.603 393.374C117.203 392.434 117.597 391.64 118.558 391.067C119.436 390.542 120.298 390.573 120.735 391.305L120.757 391.342C121.243 392.156 120.5 392.947 118.244 394.53C115.47 396.472 113.91 398.992 115.751 402.075C117.423 404.873 120.083 405.047 122.772 403.441ZM122.517 399.275C121.657 399.788 120.802 399.728 120.332 398.941C119.901 398.219 120.08 397.355 121.141 396.473C121.87 395.864 122.448 395.295 122.847 394.759L123.547 395.93C124.312 397.21 123.66 398.592 122.517 399.275ZM127.804 374.724L122.755 377.739L133.943 396.471L138.992 393.455L127.804 374.724Z" fill="#E0E0E0"/>
</g>
</g>
<defs>
<filter id="filter0_d" x="0" y="0" width="309" height="439" filterUnits="userSpaceOnUse" color-interpolation-filters="sRGB">
<feFlood flood-opacity="0" result="BackgroundImageFix"/>
<feColorMatrix in="SourceAlpha" type="matrix" values="0 0 0 0 0 0 0 0 0 0 0 0 0 0 0 0 0 0 127 0"/>
<feOffset dy="4"/>
<feGaussianBlur stdDeviation="3"/>
<feColorMatrix type="matrix" values="0 0 0 0 0 0 0 0 0 0 0 0 0 0 0 0 0 0 0.06 0"/>
<feBlend mode="normal" in2="BackgroundImageFix" result="effect1_dropShadow"/>
<feBlend mode="normal" in="SourceGraphic" in2="effect1_dropShadow" result="shape"/>
</filter>
<clipPath id="clip0">
<path d="M6 9.99999C6 5.58172 9.58172 2 14 2H295C299.418 2 303 5.58172 303 10V421C303 425.418 299.418 429 295 429H14C9.58173 429 6 425.418 6 421V9.99999Z" fill="white"/>
</clipPath>
</defs>
</svg>
