<svg width="12" height="17" viewBox="0 0 12 17" fill="none" xmlns="http://www.w3.org/2000/svg">
<path d="M6 0C2.68286 0 0 2.6605 0 5.95C0 10.4125 6 17 6 17C6 17 12 10.4125 12 5.95C12 2.6605 9.31714 0 6 0ZM1.71429 5.95C1.71429 3.604 3.63429 1.7 6 1.7C8.36571 1.7 10.2857 3.604 10.2857 5.95C10.2857 8.398 7.81714 12.0615 6 14.348C4.21714 12.0785 1.71429 8.3725 1.71429 5.95Z" fill="black"/>
<path d="M5.99997 8.075C7.18344 8.075 8.14283 7.1236 8.14283 5.95C8.14283 4.77639 7.18344 3.825 5.99997 3.825C4.81651 3.825 3.85712 4.77639 3.85712 5.95C3.85712 7.1236 4.81651 8.075 5.99997 8.075Z" fill="black"/>
</svg>
