<svg width="88" height="64" viewBox="0 0 88 64" fill="none" xmlns="http://www.w3.org/2000/svg">
<g clip-path="url(#clip0)">
<path d="M75 56.0474V45.625C75 42.7469 72.6719 40.4138 69.8 40.4138H27.8846C26.5317 38.9746 25.0529 37.6597 23.4663 36.4845C23.4132 36.4168 23.3551 36.353 23.293 36.2935C23.2273 36.2585 23.1597 36.2279 23.0902 36.2014C20.3745 34.2396 17.3751 32.7058 14.1964 31.6537C14.1652 31.6416 14.1444 31.6173 14.1132 31.6068C14.082 31.5964 14.0699 31.6068 14.0474 31.6068C7.47543 29.4644 0.394772 29.4644 -6.17716 31.6068C-6.19969 31.6068 -6.22049 31.6068 -6.24302 31.6068C-6.26556 31.6068 -6.29502 31.6416 -6.32622 31.6537C-9.50494 32.7058 -12.5043 34.2396 -15.22 36.2014C-15.2895 36.2279 -15.3571 36.2585 -15.4228 36.2935C-15.4856 36.3525 -15.5434 36.4164 -15.5961 36.4845C-18.2342 38.4409 -20.5679 40.779 -22.5207 43.4224C-22.5875 43.4762 -22.6505 43.5342 -22.7097 43.5961C-22.7446 43.6619 -22.7751 43.7296 -22.8015 43.7993C-24.7596 46.5209 -26.2903 49.5267 -27.3411 52.7122C-27.3533 52.7435 -27.3775 52.7643 -27.3879 52.7956C-27.3983 52.8269 -27.3879 52.8408 -27.3966 52.8616C-29.5345 59.4477 -29.5345 66.5436 -27.3966 73.1297C-27.3966 73.1506 -27.3966 73.1732 -27.3879 73.1958C-27.3793 73.2183 -27.3463 73.267 -27.3307 73.3069C-26.2814 76.4823 -24.7548 79.4785 -22.8033 82.192C-22.7768 82.2617 -22.7463 82.3295 -22.7114 82.3953C-22.6663 82.4561 -22.5987 82.4804 -22.5485 82.5325C-20.5911 85.1911 -18.2483 87.5418 -15.5978 89.5068C-15.5452 89.575 -15.4873 89.6388 -15.4245 89.6979C-15.3461 89.7459 -15.2637 89.7871 -15.1784 89.8212C-12.4744 91.7685 -9.48977 93.2915 -6.32796 94.3376C-6.29676 94.3498 -6.27596 94.3741 -6.24476 94.3845C-6.21356 94.3949 -6.19102 94.3845 -6.16503 94.3984C-0.465611 96.2632 5.63853 96.5037 11.4664 95.0932C12.3112 95.6734 13.3092 95.9891 14.3334 96H69.8C72.6719 96 75 93.6669 75 90.7888V80.3664C74.99 78.0185 73.4144 75.967 71.152 75.3567C71.402 74.7409 71.5314 74.0827 71.5333 73.4181V62.9957C71.5314 62.331 71.402 61.6729 71.152 61.0571C73.4144 60.4468 74.99 58.3955 75 56.0474ZM55.4255 51.3452L53.1843 49.0991L55.4255 46.8531C56.1021 46.1748 56.1021 45.0752 55.4255 44.3969L54.9176 43.8879H60.4157L62.1491 45.625L59.9079 47.871C59.2312 48.5493 59.2312 49.6489 59.9079 50.3272L62.1491 52.5733L59.9079 54.8193C59.2312 55.4976 59.2312 56.5972 59.9079 57.2755L60.4157 57.7845H54.9176L53.1843 56.0474L55.4255 53.8014C56.1021 53.1231 56.1021 52.0235 55.4255 51.3452ZM62.3588 72.19L60.1176 69.944L62.3588 67.6979C63.0355 67.0196 63.0355 65.92 62.3588 65.2417L60.1176 62.9957L61.8509 61.2586H66.3333C67.2906 61.2586 68.0667 62.0364 68.0667 62.9957V73.4181C68.0667 74.3774 67.2906 75.1552 66.3333 75.1552H61.8509L62.3588 74.6462C63.0355 73.9679 63.0355 72.8683 62.3588 72.19ZM56.4412 71.1721L58.6824 73.4181L56.9491 75.1552H51.4509L51.9588 74.6462C52.6355 73.9679 52.6355 72.8683 51.9588 72.19L49.7176 69.944L51.9588 67.6979C52.6355 67.0196 52.6355 65.92 51.9588 65.2417L49.7176 62.9957L51.4509 61.2586H56.9491L56.4412 61.7676C55.7646 62.4459 55.7646 63.5455 56.4412 64.2238L58.6824 66.4698L56.4412 68.7159C55.7646 69.3942 55.7646 70.4937 56.4412 71.1721ZM45.0255 51.3452L42.7843 49.0991L45.0255 46.8531C45.7021 46.1748 45.7021 45.0752 45.0255 44.3969L44.5176 43.8879H50.0157L51.7491 45.625L49.5079 47.871C48.8312 48.5493 48.8312 49.6489 49.5079 50.3272L51.7491 52.5733L49.5079 54.8193C48.8312 55.4976 48.8312 56.5972 49.5079 57.2755L50.0157 57.7845H44.5176L42.7843 56.0474L45.0255 53.8014C45.7021 53.1231 45.7021 52.0235 45.0255 51.3452ZM46.0412 71.1721L48.2824 73.4181L46.5491 75.1552H41.0509L41.5588 74.6462C42.2355 73.9679 42.2355 72.8683 41.5588 72.19L39.3176 69.944L41.5588 67.6979C42.2355 67.0196 42.2355 65.92 41.5588 65.2417L39.3176 62.9957L41.0509 61.2586H46.5491L46.0412 61.7676C45.3646 62.4459 45.3646 63.5455 46.0412 64.2238L48.2824 66.4698L46.0412 68.7159C45.3646 69.3942 45.3646 70.4937 46.0412 71.1721ZM34.6255 44.3969L34.1176 43.8879H39.6157L41.3491 45.625L39.1079 47.871C38.4312 48.5493 38.4312 49.6489 39.1079 50.3272L41.3491 52.5733L39.1079 54.8193C38.4312 55.4976 38.4312 56.5972 39.1079 57.2755L39.6157 57.7845H36.4143C36.1584 56.116 35.7736 54.4701 35.2634 52.8616C35.2634 52.8408 35.2634 52.8182 35.2547 52.7956C35.246 52.773 35.22 52.7435 35.2079 52.7122C34.6909 51.1517 34.0583 49.6322 33.3151 48.1663L34.6255 46.8531C35.3021 46.1748 35.3021 45.0752 34.6255 44.3969ZM35.2634 73.1297C35.4557 72.5305 35.61 71.9138 35.7695 71.3006L37.8824 73.4181L36.1491 75.1552H34.5215C34.7624 74.5472 34.9912 73.9392 35.1975 73.3069C35.2131 73.267 35.2426 73.2357 35.2547 73.1958C35.2668 73.1558 35.2547 73.1506 35.2634 73.1297ZM36.4628 67.8925C36.5893 67.0483 36.6881 66.1971 36.7488 65.3338L37.8824 66.4698L36.4628 67.8925ZM18.5523 92.5259L18.7308 92.4407L18.8158 92.5259H18.5523ZM28.7079 92.0169L29.2158 92.5259H23.7176L21.8508 90.6516C22.2582 90.3858 22.6551 90.1061 23.0486 89.8212C23.1339 89.7871 23.2163 89.7459 23.2947 89.6979C23.3569 89.6384 23.4149 89.5746 23.468 89.5068C25.3212 88.1319 27.0268 86.5677 28.5571 84.8393C28.6015 84.9199 28.6524 84.9965 28.7096 85.0686L30.9491 87.3147L28.7079 89.5607C28.0312 90.239 28.0312 91.3386 28.7079 92.0169ZM28.72 78.8986L27.3854 77.9275C26.611 77.3634 25.5268 77.5354 24.9639 78.3114C24.401 79.0875 24.5726 80.174 25.347 80.7381L26.6972 81.7196C25.4718 83.2134 24.1042 84.584 22.6135 85.8121L21.6342 84.4589C21.0186 83.7241 19.9253 83.6284 19.1921 84.2453C18.5285 84.8035 18.3781 85.7671 18.84 86.5017L19.809 87.8392C18.1868 88.883 16.466 89.7639 14.6714 90.4692L14.16 88.8919C13.8233 87.9938 12.8238 87.5394 11.9277 87.8768C11.0881 88.193 10.6277 89.0988 10.8667 89.9654L11.3763 91.5288C9.50777 92.0197 7.59525 92.3241 5.6667 92.4373V90.7888C5.6667 89.8295 4.8906 89.0517 3.93337 89.0517C2.97614 89.0517 2.20004 89.8295 2.20004 90.7888V92.4373C0.276037 92.3261 -1.63258 92.0247 -3.49743 91.5375L-2.98783 89.9741C-2.73303 89.0493 -3.27426 88.0926 -4.19704 87.8373C-5.06154 87.598 -5.96569 88.0592 -6.28116 88.9006L-6.79249 90.4779C-8.58931 89.7689 -10.312 88.8841 -11.9353 87.8358L-10.9664 86.4982C-10.4035 85.7222 -10.5751 84.6357 -11.3494 84.0715C-12.1238 83.5074 -13.208 83.6794 -13.7709 84.4554L-14.7502 85.8086C-16.2407 84.5816 -17.6083 83.2121 -18.834 81.7196L-17.4837 80.7381C-16.742 80.1314 -16.6315 79.0373 -17.2369 78.2941C-17.7957 77.6079 -18.7804 77.4529 -19.5221 77.9345L-20.8568 78.9055C-21.8983 77.2798 -22.7773 75.5553 -23.481 73.7568L-21.9072 73.2357C-21.011 72.8983 -20.5575 71.8966 -20.8942 70.9986C-21.2097 70.157 -22.1138 69.6958 -22.9783 69.9353L-24.547 70.446C-25.0334 68.5758 -25.3342 66.6622 -25.4449 64.7327H-23.7999C-22.8427 64.7327 -22.0666 63.955 -22.0666 62.9957C-22.0666 62.0364 -22.8427 61.2586 -23.7999 61.2586H-25.4449C-25.3339 59.3305 -25.0332 57.4177 -24.547 55.5489L-22.9783 56.0596C-22.8052 56.1156 -22.6245 56.1442 -22.4427 56.1447C-21.4855 56.1601 -20.6973 55.3949 -20.6819 54.4356C-20.6696 53.662 -21.1692 52.9734 -21.9072 52.747L-23.481 52.2345C-22.7758 50.4382 -21.8957 48.7161 -20.8533 47.0928L-19.5186 48.0638C-18.7443 48.628 -17.6601 48.456 -17.0972 47.6799C-16.5343 46.9039 -16.7059 45.8174 -17.4802 45.2533L-18.8305 44.2718C-17.605 42.7779 -16.2374 41.4074 -14.7468 40.1793L-13.7674 41.5325C-13.2572 42.3441 -12.1868 42.5875 -11.3769 42.0762C-10.567 41.5648 -10.3242 40.4922 -10.8344 39.6805C-10.8762 39.6139 -10.9228 39.55 -10.9733 39.4897L-11.9422 38.1521C-10.32 37.1084 -8.59927 36.2274 -6.80462 35.5222L-6.29329 37.0995C-6.06167 37.8164 -5.39521 38.3019 -4.64316 38.3015C-4.46116 38.3013 -4.28024 38.272 -4.10756 38.2147C-3.19713 37.9183 -2.69901 36.9383 -2.99476 36.0259L-3.50436 34.4626C-1.63734 33.9719 0.27322 33.6677 2.20004 33.5541V35.2026C2.20004 36.1619 2.97614 36.9396 3.93337 36.9396C4.8906 36.9396 5.6667 36.1619 5.6667 35.2026V33.5541C7.5907 33.6653 9.49932 33.9667 11.3642 34.4539L10.8546 36.0173C10.5588 36.9297 11.0569 37.9096 11.9674 38.206C12.14 38.2633 12.321 38.2926 12.503 38.2928C13.255 38.2933 13.9215 37.8077 14.1531 37.0908L14.6644 35.5135C16.4595 36.2227 18.1805 37.1077 19.802 38.1556L18.8331 39.4931C18.2702 40.2692 18.4418 41.3557 19.2162 41.9198C19.9905 42.4839 21.0747 42.312 21.6376 41.5359L22.617 40.1828C24.1076 41.4109 25.4752 42.7814 26.7007 44.2753L25.3504 45.2567C24.6172 45.8736 24.5217 46.9693 25.1372 47.704C25.6943 48.3691 26.6558 48.5198 27.3888 48.0569L28.7235 47.0859C29.765 48.7115 30.644 50.436 31.3478 52.2345L29.7739 52.747C28.8626 53.0405 28.3612 54.0192 28.6544 54.9324C28.8853 55.6524 29.5548 56.1399 30.3095 56.1377C30.4913 56.1373 30.672 56.1086 30.8451 56.0526L32.4051 55.5419C32.8947 57.413 33.1983 59.3276 33.3116 61.2586H31.6667C30.7095 61.2586 29.9334 62.0364 29.9334 62.9957C29.9334 63.955 30.7095 64.7327 31.6667 64.7327H33.3116C33.2007 66.6609 32.9 68.5736 32.4138 70.4425L30.8538 69.9318C29.931 69.6762 28.9763 70.2189 28.7215 71.1436C28.4828 72.0102 28.943 72.9161 29.7826 73.2322L31.3564 73.7533C30.6486 75.5512 29.7654 77.2746 28.72 78.8986ZM39.1079 85.0686L41.3491 87.3147L39.1079 89.5607C38.4312 90.239 38.4312 91.3386 39.1079 92.0169L39.6157 92.5259H34.1176L32.3843 90.7888L34.6255 88.5428C35.3021 87.8644 35.3021 86.7649 34.6255 86.0865L32.3843 83.8405L34.6255 81.5945C35.3021 80.9162 35.3021 79.8166 34.6255 79.1383L34.1176 78.6293H39.6157L41.3491 80.3664L39.1079 82.6124C38.4312 83.2907 38.4312 84.3903 39.1079 85.0686ZM49.5079 85.0686L51.7491 87.3147L49.5079 89.5607C48.8312 90.239 48.8312 91.3386 49.5079 92.0169L50.0157 92.5259H44.5176L42.7843 90.7888L45.0255 88.5428C45.7021 87.8644 45.7021 86.7649 45.0255 86.0865L42.7843 83.8405L45.0255 81.5945C45.7021 80.9162 45.7021 79.8166 45.0255 79.1383L44.5176 78.6293H50.0157L51.7491 80.3664L49.5079 82.6124C48.8312 83.2907 48.8312 84.3903 49.5079 85.0686ZM59.9079 85.0686L62.1491 87.3147L59.9079 89.5607C59.2312 90.239 59.2312 91.3386 59.9079 92.0169L60.4157 92.5259H54.9176L53.1843 90.7888L55.4255 88.5428C56.1021 87.8644 56.1021 86.7649 55.4255 86.0865L53.1843 83.8405L55.4255 81.5945C56.1021 80.9162 56.1021 79.8166 55.4255 79.1383L54.9176 78.6293H60.4157L62.1491 80.3664L59.9079 82.6124C59.2312 83.2907 59.2312 84.3903 59.9079 85.0686ZM71.5333 80.3664V90.7888C71.5333 91.7481 70.7572 92.5259 69.8 92.5259H65.3176L63.5843 90.7888L65.8255 88.5428C66.5021 87.8644 66.5021 86.7649 65.8255 86.0865L63.5843 83.8405L65.8255 81.5945C66.5021 80.9162 66.5021 79.8166 65.8255 79.1383L65.3176 78.6293H69.8C70.7572 78.6293 71.5333 79.4071 71.5333 80.3664ZM71.5333 56.0474C71.5333 57.0067 70.7572 57.7845 69.8 57.7845H65.3176L63.5843 56.0474L65.8255 53.8014C66.5021 53.1231 66.5021 52.0235 65.8255 51.3452L63.5843 49.0991L65.8255 46.8531C66.5021 46.1748 66.5021 45.0752 65.8255 44.3969L65.3176 43.8879H69.8C70.7572 43.8879 71.5333 44.6657 71.5333 45.625V56.0474Z" fill="#2C393F" fill-opacity="0.15"/>
<path d="M24.4519 58.3112L24.4887 58.2744L24.4257 58.2114C21.7811 46.9206 10.4886 39.9127 -0.796595 42.5586C-12.0818 45.2045 -19.0863 56.5025 -16.4417 67.7933C-14.2162 77.295 -5.74062 84.0101 4.01363 84C9.11156 83.9989 14.0326 82.1316 17.8495 78.7506H18.0053V78.6089C23.7178 73.5414 26.1928 65.7482 24.4519 58.3112ZM9.34461 79.6622C0.148268 82.6172 -9.7013 77.5539 -12.655 68.353C-15.6086 59.1522 -10.5478 49.2977 -1.35145 46.3425C0.382406 45.7854 2.19277 45.5026 4.01385 45.5044C5.79362 45.5033 7.56332 45.7754 9.26066 46.311V56.0032C9.26263 56.6727 9.39314 57.3356 9.64543 57.9559C7.36263 58.5708 5.77285 60.6373 5.76279 63.0024V73.5012C5.77285 75.8663 7.36263 77.9328 9.64543 78.5476C9.50464 78.907 9.40364 79.2808 9.34461 79.6622ZM15.0199 71.2387L17.2813 73.5012L15.5324 75.251H11.0096C10.0438 75.251 9.26066 74.4675 9.26066 73.5012V63.0024C9.26066 62.036 10.0438 61.2526 11.0096 61.2526H15.5324L15.0199 61.7653C14.3372 62.4486 14.3372 63.5562 15.0199 64.2395L17.2813 66.502L15.0199 68.7645C14.3372 69.4478 14.3372 70.5554 15.0199 71.2387ZM14.5075 57.7477C13.5416 57.7477 12.7585 56.9642 12.7585 55.9979V47.8718C15.3784 49.3948 17.5609 51.569 19.0947 54.1836L18.5178 54.7608C17.835 55.4441 17.835 56.5517 18.5178 57.235L19.0302 57.7477H14.5075ZM19.6091 70.8765L18.7347 70.0016L20.7862 67.9508C20.4823 68.9594 20.0883 69.9386 19.6091 70.8765ZM21.2741 65.6918V65.6866C21.2017 65.5306 21.1062 65.3867 20.9908 65.2596L18.7294 63.0024L20.4783 61.2526H21.414C21.569 62.7318 21.522 64.2253 21.2741 65.6918Z" fill="#2C393F" fill-opacity="0.15"/>
</g>
<defs>
<clipPath id="clip0">
<rect width="117" height="117" fill="white" transform="translate(-29)"/>
</clipPath>
</defs>
</svg>
