<svg width="24" height="22" viewBox="0 0 24 22" fill="none" xmlns="http://www.w3.org/2000/svg">
<path d="M22.9091 15.3819H20.5309C20.6579 15.0296 20.7243 14.658 20.7273 14.2832V8.78966C20.7273 7.91548 20.3825 7.07709 19.7687 6.45895C19.155 5.84081 18.3225 5.49354 17.4545 5.49354H10.9091C10.0411 5.49354 9.20868 5.84081 8.59492 6.45895C7.98117 7.07709 7.63636 7.91548 7.63636 8.78966V14.2832C7.63931 14.658 7.70572 15.0296 7.83273 15.3819H6.54545C6.25613 15.3819 5.97865 15.2662 5.77407 15.0601C5.56948 14.8541 5.45455 14.5746 5.45455 14.2832V3.29612C5.45455 2.42194 5.10974 1.58356 4.49599 0.965412C3.88223 0.347269 3.0498 0 2.18182 0H1.09091C0.801582 0 0.524105 0.115756 0.31952 0.321804C0.114935 0.527852 0 0.807312 0 1.09871C0 1.3901 0.114935 1.66956 0.31952 1.87561C0.524105 2.08166 0.801582 2.19742 1.09091 2.19742H2.18182C2.47115 2.19742 2.74862 2.31317 2.95321 2.51922C3.15779 2.72527 3.27273 3.00473 3.27273 3.29612V14.2832C3.27675 15.0049 3.51587 15.7054 3.95337 16.277C4.39087 16.8486 5.00257 17.2598 5.69455 17.4475C5.49364 17.9425 5.41534 18.4793 5.4664 19.0116C5.51746 19.5439 5.69636 20.0557 5.98764 20.5028C6.27893 20.95 6.67386 21.319 7.13836 21.5781C7.60287 21.8372 8.12298 21.9785 8.65384 21.99C9.1847 22.0015 9.71036 21.8827 10.1855 21.6438C10.6606 21.405 11.0708 21.0534 11.3809 20.6192C11.6909 20.1851 11.8914 19.6815 11.965 19.1519C12.0387 18.6223 11.9833 18.0826 11.8036 17.5793H15.4691C15.2897 18.0772 15.232 18.6113 15.301 19.1363C15.37 19.6614 15.5636 20.162 15.8654 20.5957C16.1673 21.0294 16.5684 21.3835 17.0349 21.6279C17.5014 21.8724 18.0196 22 18.5455 22C19.0713 22 19.5895 21.8724 20.056 21.6279C20.5225 21.3835 20.9236 21.0294 21.2255 20.5957C21.5273 20.162 21.7209 19.6614 21.7899 19.1363C21.8589 18.6113 21.8012 18.0772 21.6218 17.5793H22.9091C23.1984 17.5793 23.4759 17.4636 23.6805 17.2575C23.8851 17.0515 24 16.772 24 16.4806C24 16.1892 23.8851 15.9098 23.6805 15.7037C23.4759 15.4977 23.1984 15.3819 22.9091 15.3819ZM8.72727 19.7767C8.51151 19.7767 8.3006 19.7123 8.1212 19.5916C7.9418 19.4708 7.80197 19.2993 7.7194 19.0985C7.63684 18.8977 7.61523 18.6768 7.65733 18.4637C7.69942 18.2506 7.80332 18.0548 7.95588 17.9011C8.10845 17.7475 8.30283 17.6428 8.51445 17.6004C8.72606 17.558 8.94541 17.5798 9.14475 17.663C9.34408 17.7461 9.51446 17.8869 9.63433 18.0676C9.7542 18.2483 9.81818 18.4607 9.81818 18.678C9.81818 18.9694 9.70325 19.2489 9.49866 19.4549C9.29408 19.661 9.0166 19.7767 8.72727 19.7767ZM10.9091 15.3819C10.6198 15.3819 10.3423 15.2662 10.1377 15.0601C9.93312 14.8541 9.81818 14.5746 9.81818 14.2832V8.78966C9.81818 8.49827 9.93312 8.21881 10.1377 8.01276C10.3423 7.80671 10.6198 7.69095 10.9091 7.69095H17.4545C17.7439 7.69095 18.0214 7.80671 18.2259 8.01276C18.4305 8.21881 18.5455 8.49827 18.5455 8.78966V14.2832C18.5455 14.5746 18.4305 14.8541 18.2259 15.0601C18.0214 15.2662 17.7439 15.3819 17.4545 15.3819H10.9091ZM18.5455 19.7767C18.3297 19.7767 18.1188 19.7123 17.9394 19.5916C17.76 19.4708 17.6202 19.2993 17.5376 19.0985C17.455 18.8977 17.4334 18.6768 17.4755 18.4637C17.5176 18.2506 17.6215 18.0548 17.7741 17.9011C17.9266 17.7475 18.121 17.6428 18.3326 17.6004C18.5442 17.558 18.7636 17.5798 18.9629 17.663C19.1623 17.7461 19.3326 17.8869 19.4525 18.0676C19.5724 18.2483 19.6364 18.4607 19.6364 18.678C19.6364 18.9694 19.5214 19.2489 19.3168 19.4549C19.1123 19.661 18.8348 19.7767 18.5455 19.7767Z" fill="white"/>
</svg>
