<svg width="119" height="27" viewBox="0 0 119 27" fill="none" xmlns="http://www.w3.org/2000/svg">
<path d="M0.55309 0.818181V27H33.7917V0.818181H26.9395V21.5284H20.7008V0.818181H13.8485V21.5284H7.4565V0.818181H0.55309Z" fill="#00C7C7"/>
<path d="M38.8926 0.818181V27H44.8244L54.2846 13.2443H54.438V27H61.546V0.818181H55.5119L46.2051 14.5227H46.0005V0.818181H38.8926ZM64.9082 27H72.0162V16.7727H81.4252V27H88.5332V0.818181H81.4252V11.0455H72.0162V0.818181H64.9082V27ZM98.7093 27L100.218 21.9886H108.86L110.368 27H118.039L109.397 0.818181H99.6809L91.0389 27H98.7093ZM101.829 16.6705L104.437 8.02841H104.641L107.249 16.6705H101.829Z" fill="#2C393F"/>
</svg>
